# AST/ASF file generated using VICON BodyLanguage
# -----------------------------------------------
:version 1.10
:name VICON
:units
  mass 1.0
  length 0.45
  angle deg
:documentation
   .ast/.asf automatically generated from VICON data using
   VICON BodyBuilder and BodyLanguage model FoxedUp or BRILLIANT.MOD
:root
   order TX TY TZ RX RY RZ
   axis XYZ
   position 0 0 0  
   orientation 0 0 0 
:bonedata
  begin
     id 1 
     name lhipjoint
     direction 0.567149 -0.783011 0.255413 
     length 2.28399 
     axis 0 0 0  XYZ
  end
  begin
     id 2 
     name lfemur
     direction 0.34202 -0.939693 0  
     length 7.34031  
     axis 0 0 20  XYZ
    dof rx ry rz
    limits (-160.0 20.0)
           (-70.0 70.0)
           (-60.0 70.0)
  end
  begin
     id 3 
     name ltibia
     direction 0.34202 -0.939693 0   
     length 6.9833   
     axis 0 0 20   XYZ
    dof rx
    limits (-10.0 170.0)
  end
  begin
     id 4 
     name lfoot
     direction 0.136498 -0.375025 0.91691   
     length 2.33665   
     axis -90 7.62852e-016 20   XYZ
    dof rx rz
    limits (-45.0 90.0)
           (-70.0 20.0)
  end
  begin
     id 5 
     name ltoes
     direction 1.5367e-011 -4.21617e-011 1   
     length 1.15039   
     axis -90 7.62852e-016 20   XYZ
    dof rx
    limits (-90.0 20.0)
  end
  begin
     id 6 
     name rhipjoint
     direction -0.602854 -0.758518 0.247423   
     length 2.35775  
     axis 0 0 0  XYZ 
  end
  begin
     id 7 
     name rfemur
     direction -0.34202 -0.939693 0   
     length 7.43932   
     axis 0 0 -20   XYZ
    dof rx ry rz
    limits (-160.0 20.0)
           (-70.0 70.0)
           (-70.0 60.0)
  end
  begin
     id 8 
     name rtibia
     direction -0.34202 -0.939693 0   
     length 7.11893   
     axis 0 0 -20   XYZ
    dof rx
    limits (-10.0 170.0)
 end
 begin
     id 9 
     name rfoot
     direction -0.131771 -0.362037 0.922803   
     length 2.53019  
     axis -90 -7.62852e-016 -20   XYZ
    dof rx rz
    limits (-45.0 90.0)
           (-20.0 70.0)
  end
  begin
     id 10 
     name rtoes
     direction -1.53733e-011 -4.21932e-011 1   
     length 1.24596   
     axis -90 -7.62852e-016 -20   XYZ
    dof rx
    limits (-90.0 20.0)
  end
  begin
     id 11 
     name lowerback
     direction 0.0235427 0.999023 -0.0374125   
     length 2.21768   
     axis 0 0 0   XYZ
    dof rx ry rz
    limits (-20.0 45.0)
           (-30.0 30.0)
           (-30.0 30.0)
  end
  begin
     id 12 
     name upperback
     direction 0.0302156 0.996818 -0.073759   
     length 2.20352   
     axis 0 0 0   XYZ
    dof rx ry rz
    limits (-20.0 45.0)
           (-30.0 30.0)
           (-30.0 30.0)
  end
  begin
     id 13 
     name thorax
     direction 0.0187169 0.998235 -0.0563532   
     length 2.22103   
     axis 0 0 0   XYZ
    dof rx ry rz
    limits (-20.0 45.0)
           (-30.0 30.0)
           (-30.0 30.0)
  end
  begin
     id 14 
     name lowerneck
     direction -0.119528 0.987423 0.103481   
     length 1.72948   
     axis 0 0 0   XYZ
    dof rx ry rz
    limits (-20.0 45.0)
           (-30.0 30.0)
           (-30.0 30.0)
  end
  begin
     id 15 
     name upperneck
     direction 0.248049 0.963095 -0.104496   
     length 1.74979   
     axis 0 0 0   XYZ
    dof rx ry rz
    limits (-20.0 45.0)
           (-30.0 30.0)
           (-30.0 30.0)
  end
  begin
     id 16
     name head
     direction 0.0903589 0.994284 -0.056876  
     length 1.78268  
     axis 0 0 0   XYZ
    dof rx ry rz
    limits (-20.0 45.0)
           (-30.0 30.0)
           (-30.0 30.0)
  end
  begin
     id 17 
     name lclavicle
     direction 0.946008 0.242039 -0.215608  
     length 3.80783  
     axis 0 0 0   XYZ
    dof ry rz
    limits (-20.0 10.0)
           (0.0 20.0)
  end
  begin
     id 18 
     name lhumerus
     direction 1 -4.48991e-011 -2.25695e-027   
     length 4.83125   
     axis 180 -30 -90   XYZ
    dof rx ry rz
    limits (-60.0 90.0)
           (-90.0 90.0)
           (-90.0 90.0)
  end
  begin
     id 19
     name lradius
     direction 0.999991 0.00366712 -0.00211721   
     length 3.00391   
     axis 180 -30 -90   XYZ
    dof rx
    limits (-10.0 170.0)
  end
  begin
     id 20
     name lwrist
     direction 0.999991 0.00393016 -0.00141978   
     length 1.50195   
     axis -1.00488e-014 90 90   XYZ
    dof ry
    limits (-180.0 0.0)
 end
  begin
     id 21 
     name lhand
     direction 1 -4.49123e-011 2.72098e-026   
     length 1.2717   
     axis -1.73687e-014 90 90   XYZ
    dof rx rz
    limits (-90.0 90.0)
           (-45.0 45.0)
  end
  begin
     id 22 
     name lfingers
     direction 1 -4.48678e-011 5.4479e-026   
     length 1.02528   
     axis -3.47372e-014 90 90   XYZ
    dof rx
    limits (0.0 90.0)
  end
  begin
     id 23
     name lthumb
     direction 0.707107 -6.34851e-011 0.707107   
     length 1.4721   
     axis -90 45 -1.62303e-014   XYZ
    dof rx rz
    limits (-45.0 45.0)
           (-45.0 45.0)
  end
  begin
     id 24 
     name rclavicle
     direction -0.981723 0.189447 -0.0181673   
     length 3.74989  
     axis 0 0 0   XYZ 
    dof ry rz
    limits (-10.0 20.0)
           (-20.0 0.0)
  end
  begin
     id 25 
     name rhumerus
     direction -1 -4.48985e-011 2.38206e-027  
     length 4.61118   
     axis 180 30 90   XYZ
    dof rx ry rz
    limits (-90.0 60.0)
           (-90.0 90.0)
           (-90.0 90.0)
  end
  begin
     id 26 
     name rradius
     direction -1 -4.48977e-011 7.41019e-027   
     length 2.91491   
     axis 180 30 90   XYZ
    dof rx
    limits (-10.0 170.0)
  end
  begin
     id 27 
     name rwrist
     direction -1 -4.48549e-011 1.3624e-026   
     length 1.45745   
     axis -1.00488e-014 -90 -90   XYZ
    dof ry
    limits (-180.0 0.0)
  end
  begin
     id 28
     name rhand
     direction -1 -4.49107e-011 2.72109e-026   
     length 1.30769   
     axis -1.73687e-014 -90 -90   XYZ
    dof rx rz
    limits (-90.0 90.0)
           (-45.0 45.0)
  end
  begin
     id 29
     name rfingers
     direction -1 -4.48919e-011 5.44468e-026   
     length 1.05429   
     axis -3.47372e-014 -90 -90   XYZ
    dof rx
    limits (0.0 90.0)
  end
  begin
     id 30
     name rthumb
     direction -0.707107 -6.35315e-011 0.707107   
     length 1.51376   
     axis -90 -45 1.62303e-014   XYZ
    dof rx rz
    limits (-45.0 45.0)
           (-45.0 45.0)
  end
:hierarchy
  begin
    root lhipjoint rhipjoint lowerback
    lhipjoint lfemur
    lfemur ltibia
    ltibia lfoot
    lfoot ltoes
    rhipjoint rfemur
    rfemur rtibia
    rtibia rfoot
    rfoot rtoes
    lowerback upperback
    upperback thorax
    thorax lowerneck lclavicle rclavicle
    lowerneck upperneck
    upperneck head
    lclavicle lhumerus
    lhumerus lradius
    lradius lwrist
    lwrist lhand lthumb
    lhand lfingers
    rclavicle rhumerus
    rhumerus rradius
    rradius rwrist
    rwrist rhand rthumb
    rhand rfingers
  end

#!OML:ASF X:\für Bonn\!DataBase\2005_08_11_Bastian_Final\c3d\Bastian.ASF
:FULLY-SPECIFIED
:DEGREES
16
root -22.7142 17.6218 -0.414888 75.255 -84.046 -83.3971
lowerback 5.28313 -1.9415 2.54636
upperback 5.18892 -2.73282 2.57608
thorax 2.40377 -1.41744 1.30831
lowerneck -8.62977 -3.24355 -3.5909
upperneck -9.85046 -4.19629 4.56027
head -1.47208 -2.18836 1.99691
rclavicle -3.72224e-014 1.60022e-014
rhumerus -50.8268 -3.39786 -85.8353
rradius 44.9738
rwrist -13.4545
rhand -3.06123 -6.18805
rfingers 7.12502
rthumb 22.6552 -34.8783
lclavicle -3.72224e-014 1.60022e-014
lhumerus -24.1858 -4.52184 89.942
lradius 14.6323
lwrist 8.43238
lhand -9.9499 -7.5421
lfingers 7.12502
lthumb 16.0319 21.8146
rfemur 0.60998 3.95641 26.3381
rtibia 27.5984
rfoot -11.0873 -15.9426
rtoes -8.23639
lfemur 3.03421 4.20481 -12.6817
ltibia 22.4292
lfoot -10.4949 -5.00789
ltoes -15.1467
17
root -22.7126 17.6218 -0.41465 73.9569 -84.0369 -82.1001
lowerback 5.28809 -1.93553 2.49283
upperback 5.19585 -2.7261 2.56858
thorax 2.41001 -1.41538 1.33025
lowerneck -8.62542 -3.28224 -3.63661
upperneck -9.86691 -4.24584 4.53468
head -1.47578 -2.21134 1.99598
rclavicle 9.67833e-015 -2.18663e-014
rhumerus -51.0804 -3.43603 -85.1327
rradius 46.4164
rwrist -12.0046
rhand -2.11377 -5.99978
rfingers 7.12502
rthumb 23.5643 -34.5761
lclavicle 9.67833e-015 -2.18663e-014
lhumerus -24.1343 -4.90366 89.9801
lradius 15.3041
lwrist 9.12101
lhand -10.1061 -7.73899
lfingers 7.12502
lthumb 15.8814 21.6297
rfemur 0.625496 3.91559 26.3255
rtibia 27.5912
rfoot -11.1002 -16.0277
rtoes -8.208
lfemur 3.00151 4.23822 -12.6739
ltibia 22.4432
lfoot -10.4529 -5.18794
ltoes -14.9429
18
root -22.7109 17.6222 -0.414033 72.899 -84.0197 -81.0528
lowerback 5.29402 -1.92072 2.47609
upperback 5.21429 -2.70642 2.53565
thorax 2.42475 -1.40513 1.3049
lowerneck -8.64738 -3.32907 -3.6325
upperneck -9.86187 -4.30899 4.51537
head -1.46834 -2.2425 1.987
rclavicle 2.47114e-014 -4.37326e-014
rhumerus -51.3255 -3.4423 -84.4873
rradius 47.9368
rwrist -10.5788
rhand -1.28724 -5.63075
rfingers 7.12502
rthumb 24.3569 -34.1029
lclavicle 2.47114e-014 -4.37326e-014
lhumerus -24.1058 -5.52185 90.0401
lradius 16.0294
lwrist 10.004
lhand -10.2931 -7.90373
lfingers 7.12502
lthumb 15.7014 21.4793
rfemur 0.653441 3.87797 26.3212
rtibia 27.5812
rfoot -11.116 -16.0931
rtoes -8.14691
lfemur 2.97902 4.24006 -12.6712
ltibia 22.4592
lfoot -10.4282 -5.29655
ltoes -14.9139
19
root -22.7093 17.6225 -0.413446 71.8643 -84.0046 -80
lowerback 5.2789 -1.90285 2.4379
upperback 5.21507 -2.68332 2.52217
thorax 2.43468 -1.39401 1.31096
lowerneck -8.65421 -3.37236 -3.68594
upperneck -9.85454 -4.36197 4.51796
head -1.46156 -2.26677 1.99579
rclavicle 2.18166e-014 -4.57205e-015
rhumerus -51.5704 -3.41527 -83.8003
rradius 49.5438
rwrist -9.11059
rhand -0.729963 -5.21456
rfingers 7.12502
rthumb 24.891 -33.6139
lclavicle 2.18166e-014 -4.57205e-015
lhumerus -24.0998 -5.99912 90.0995
lradius 16.7374
lwrist 10.712
lhand -10.4522 -8.02984
lfingers 7.12502
lthumb 15.5481 21.3651
rfemur 0.649411 3.84692 26.3111
rtibia 27.5711
rfoot -11.1274 -16.1611
rtoes -8.17721
lfemur 2.92823 4.2899 -12.6639
ltibia 22.4721
lfoot -10.3934 -5.45048
ltoes -14.9477
20
root -22.7074 17.6224 -0.41269 70.7786 -83.9799 -78.9269
lowerback 5.2901 -1.88504 2.41422
upperback 5.23208 -2.66015 2.5046
thorax 2.44606 -1.3827 1.30543
lowerneck -8.6648 -3.41987 -3.72578
upperneck -9.86213 -4.42292 4.5019
head -1.45931 -2.29559 1.99615
rclavicle 1.83317e-014 -2.75317e-014
rhumerus -51.8596 -3.26256 -83.181
rradius 51.4207
rwrist -7.78137
rhand -0.553081 -4.96393
rfingers 7.12502
rthumb 25.0605 -33.3397
lclavicle 1.83317e-014 -2.75317e-014
lhumerus -24.0534 -6.34578 90.1186
lradius 17.4043
lwrist 11.2694
lhand -10.5727 -8.13867
lfingers 7.12502
lthumb 15.4321 21.2653
rfemur 0.675597 3.82069 26.3133
rtibia 27.5598
rfoot -11.1343 -16.244
rtoes -8.1508
lfemur 2.90334 4.31384 -12.6474
ltibia 22.49
lfoot -10.354 -5.60319
ltoes -14.756
21
root -22.7059 17.6232 -0.411994 69.994 -83.9328 -78.1327
lowerback 5.27581 -1.85898 2.41163
upperback 5.238 -2.62561 2.4939
thorax 2.45948 -1.36495 1.29412
lowerneck -8.64607 -3.47145 -3.76553
upperneck -9.87761 -4.48835 4.51035
head -1.4637 -2.32704 2.00524
rclavicle -1.2424e-016 6.26172e-015
rhumerus -52.1286 -3.11479 -82.5429
rradius 53.4609
rwrist -6.62103
rhand -0.420876 -4.85642
rfingers 7.12502
rthumb 25.1872 -33.2145
lclavicle -1.2424e-016 6.26172e-015
lhumerus -24.0387 -6.69858 90.1501
lradius 18.0894
lwrist 11.7637
lhand -10.6858 -8.21064
lfingers 7.12502
lthumb 15.3232 21.2017
rfemur 0.680181 3.80632 26.3441
rtibia 27.547
rfoot -11.1452 -16.315
rtoes -8.09502
lfemur 2.85938 4.31644 -12.6148
ltibia 22.5082
lfoot -10.3348 -5.68103
ltoes -14.7857
22
root -22.704 17.6225 -0.410732 69.2228 -83.8848 -77.3649
lowerback 5.27376 -1.83288 2.4312
upperback 5.25375 -2.59019 2.46783
thorax 2.47468 -1.34584 1.25488
lowerneck -8.69013 -3.52242 -3.78795
upperneck -9.8432 -4.55296 4.51258
head -1.44202 -2.3577 2.0067
rclavicle 1.50331e-015 -1.94809e-014
rhumerus -52.2468 -2.96262 -81.9224
rradius 55.4275
rwrist -5.60163
rhand -0.407356 -4.68025
rfingers 7.12502
rthumb 25.2001 -33.0365
lclavicle 1.50331e-015 -1.94809e-014
lhumerus -24.0045 -7.0201 90.1522
lradius 18.7489
lwrist 12.2344
lhand -10.813 -8.30684
lfingers 7.12502
lthumb 15.2006 21.1148
rfemur 0.69588 3.7868 26.3715
rtibia 27.5344
rfoot -11.1392 -16.3789
rtoes -8.20757
lfemur 2.83118 4.34476 -12.577
ltibia 22.5262
lfoot -10.2974 -5.80082
ltoes -14.6745
23
root -22.7021 17.623 -0.409342 68.3433 -83.8794 -76.4793
lowerback 5.27123 -1.80959 2.4014
upperback 5.25386 -2.55804 2.42799
thorax 2.47517 -1.32928 1.22938
lowerneck -8.6651 -3.5733 -3.80859
upperneck -9.85235 -4.61895 4.51797
head -1.44577 -2.38992 2.01141
rclavicle -1.22687e-014 6.65929e-015
rhumerus -52.2415 -2.77864 -81.3015
rradius 57.3781
rwrist -4.67143
rhand -0.191643 -4.61208
rfingers 7.12502
rthumb 25.4068 -32.9391
lclavicle -1.22687e-014 6.65929e-015
lhumerus -24.0238 -7.31613 90.1473
lradius 19.4446
lwrist 12.6741
lhand -10.9487 -8.3929
lfingers 7.12502
lthumb 15.0699 21.0386
rfemur 0.700132 3.76996 26.3472
rtibia 27.5187
rfoot -11.1375 -16.4427
rtoes -8.18637
lfemur 2.78762 4.38206 -12.5909
ltibia 22.548
lfoot -10.2705 -5.92185
ltoes -14.6494
24
root -22.6991 17.6234 -0.408173 67.7141 -83.8374 -75.8582
lowerback 5.28413 -1.78071 2.40104
upperback 5.27325 -2.51924 2.40044
thorax 2.48663 -1.30921 1.20012
lowerneck -8.68176 -3.61812 -3.81472
upperneck -9.85339 -4.67706 4.53232
head -1.4404 -2.41875 2.01551
rclavicle -1.51387e-014 2.74323e-014
rhumerus -52.1654 -2.56724 -80.6866
rradius 59.4455
rwrist -3.84846
rhand 0.233972 -4.64739
rfingers 7.12502
rthumb 25.8145 -32.9158
lclavicle -1.51387e-014 2.74323e-014
lhumerus -24.003 -7.63706 90.1398
lradius 20.119
lwrist 13.1406
lhand -11.0493 -8.47331
lfingers 7.12502
lthumb 14.973 20.9654
rfemur 0.715393 3.75713 26.3715
rtibia 27.5062
rfoot -11.1389 -16.5011
rtoes -8.14121
lfemur 2.76261 4.39909 -12.5562
ltibia 22.5685
lfoot -10.2412 -6.03174
ltoes -14.4569
25
root -22.697 17.6237 -0.406425 67.1949 -83.7933 -75.3292
lowerback 5.27889 -1.75755 2.41263
upperback 5.27253 -2.4864 2.36483
thorax 2.48644 -1.29118 1.1558
lowerneck -8.67816 -3.66008 -3.82308
upperneck -9.81668 -4.72923 4.56803
head -1.42581 -2.44399 2.02673
rclavicle -2.48667e-014 3.34455e-014
rhumerus -52.037 -2.29696 -80.0964
rradius 61.6053
rwrist -3.19375
rhand 0.58251 -4.80061
rfingers 7.12502
rthumb 26.1482 -33.02
lclavicle -2.48667e-014 3.34455e-014
lhumerus -24.0253 -7.93537 90.1231
lradius 20.7767
lwrist 13.5743
lhand -11.1545 -8.51009
lfingers 7.12502
lthumb 14.8717 20.9362
rfemur 0.714102 3.7432 26.395
rtibia 27.4925
rfoot -11.1394 -16.5482
rtoes -8.18157
lfemur 2.71846 4.43894 -12.5214
ltibia 22.5876
lfoot -10.2159 -6.13626
ltoes -14.4356
26
root -22.6937 17.6241 -0.404945 66.5857 -83.782 -74.7258
lowerback 5.30182 -1.72917 2.39538
upperback 5.2843 -2.44689 2.31443
thorax 2.48399 -1.27062 1.11291
lowerneck -8.71145 -3.70768 -3.81273
upperneck -9.78938 -4.791 4.59236
head -1.40842 -2.4748 2.03003
rclavicle -2.80411e-014 9.15652e-015
rhumerus -51.7972 -1.99702 -79.4997
rradius 63.7878
rwrist -2.59838
rhand 0.776698 -4.79012
rfingers 7.12502
rthumb 26.3341 -32.9819
lclavicle -2.80411e-014 9.15652e-015
lhumerus -24.0269 -8.25698 90.1007
lradius 21.4214
lwrist 14.0086
lhand -11.1862 -8.44781
lfingers 7.12502
lthumb 14.8411 21.0007
rfemur 0.721149 3.74806 26.3857
rtibia 27.4771
rfoot -11.1277 -16.6095
rtoes -8.16975
lfemur 2.68813 4.4583 -12.5287
ltibia 22.6132
lfoot -10.1983 -6.21671
ltoes -14.4111
27
root -22.6904 17.6248 -0.403072 66.2708 -83.7501 -74.4115
lowerback 5.32379 -1.69943 2.39714
upperback 5.28359 -2.40481 2.2816
thorax 2.46926 -1.2486 1.07759
lowerneck -8.69168 -3.74509 -3.81058
upperneck -9.78197 -4.83994 4.60604
head -1.40688 -2.49909 2.0333
rclavicle -8.34022e-015 1.50579e-014
rhumerus -51.5003 -1.66349 -78.8873
rradius 66.0277
rwrist -2.12312
rhand 0.76024 -4.62464
rfingers 7.12502
rthumb 26.3183 -32.8187
lclavicle -8.34022e-015 1.50579e-014
lhumerus -24.0623 -8.52163 90.0935
lradius 22.0563
lwrist 14.391
lhand -11.2432 -8.33414
lfingers 7.12502
lthumb 14.7862 21.1184
rfemur 0.72334 3.73148 26.3987
rtibia 27.4633
rfoot -11.1235 -16.6276
rtoes -8.20112
lfemur 2.65334 4.55453 -12.4893
ltibia 22.634
lfoot -10.1669 -6.35346
ltoes -14.3833
28
root -22.686 17.6247 -0.401186 65.9927 -83.7155 -74.1448
lowerback 5.35824 -1.67249 2.41473
upperback 5.29702 -2.36621 2.23346
thorax 2.46111 -1.22768 1.01795
lowerneck -8.74312 -3.7862 -3.80358
upperneck -9.72715 -4.89084 4.65655
head -1.3773 -2.52417 2.04489
rclavicle 9.22485e-015 -1.57164e-014
rhumerus -51.1008 -1.29165 -78.2905
rradius 68.3464
rwrist -1.78757
rhand 0.717403 -4.5057
rfingers 7.12502
rthumb 26.2773 -32.7059
lclavicle 9.22485e-015 -1.57164e-014
lhumerus -24.0735 -8.77667 90.045
lradius 22.6531
lwrist 14.7449
lhand -11.2544 -8.26528
lfingers 7.12502
lthumb 14.7754 21.188
rfemur 0.730292 3.73223 26.4221
rtibia 27.4545
rfoot -11.1147 -16.6628
rtoes -8.17431
lfemur 2.63558 4.56817 -12.459
ltibia 22.6479
lfoot -10.1416 -6.40598
ltoes -14.3215
29
root -22.6821 17.6255 -0.39893 65.712 -83.7255 -73.8563
lowerback 5.37847 -1.62725 2.39835
upperback 5.29274 -2.30269 2.1726
thorax 2.44311 -1.19461 0.963162
lowerneck -8.74522 -3.83673 -3.79022
upperneck -9.69198 -4.95644 4.68706
head -1.36223 -2.55678 2.0501
rclavicle -9.74045e-015 1.77415e-014
rhumerus -50.6453 -0.936874 -77.6582
rradius 70.6883
rwrist -1.44102
rhand 0.655754 -4.34482
rfingers 7.12502
rthumb 26.2183 -32.5538
lclavicle -9.74045e-015 1.77415e-014
lhumerus -24.1059 -9.098 90.0361
lradius 23.2235
lwrist 15.1342
lhand -11.2775 -8.23422
lfingers 7.12502
lthumb 14.7532 21.2207
rfemur 0.713403 3.72957 26.3895
rtibia 27.4474
rfoot -11.0992 -16.6755
rtoes -8.24063
lfemur 2.59936 4.60991 -12.4823
ltibia 22.6612
lfoot -10.1075 -6.46154
ltoes -14.2525
30
root -22.6777 17.6264 -0.396364 65.7835 -83.7067 -73.9292
lowerback 5.40778 -1.58357 2.42656
upperback 5.29167 -2.24022 2.11542
thorax 2.42218 -1.161 0.887516
lowerneck -8.73021 -3.87298 -3.76408
upperneck -9.68218 -5.0039 4.73508
head -1.35879 -2.58151 2.06022
rclavicle 1.35111e-014 -1.04362e-015
rhumerus -50.1092 -0.526548 -77.0056
rradius 73.0845
rwrist -1.13532
rhand 0.618268 -4.21078
rfingers 7.12502
rthumb 26.1824 -32.4251
lclavicle 1.35111e-014 -1.04362e-015
lhumerus -24.123 -9.36208 89.9997
lradius 23.7142
lwrist 15.4312
lhand -11.3088 -8.30223
lfingers 7.12502
lthumb 14.723 21.1549
rfemur 0.703525 3.72125 26.398
rtibia 27.4392
rfoot -11.0857 -16.6589
rtoes -8.21336
lfemur 2.57665 4.61707 -12.4703
ltibia 22.6723
lfoot -10.0953 -6.46336
ltoes -14.2528
